<svg width="64" height="64" viewBox="0 0 64 64" fill="none" xmlns="http://www.w3.org/2000/svg">
  <defs>
    <radialGradient id="grad1" cx="50%" cy="50%" r="50%" fx="50%" fy="50%">
      <stop offset="0%" style="stop-color:#A855F7;stop-opacity:1" />
      <stop offset="100%" style="stop-color:#6366F1;stop-opacity:1" />
    </radialGradient>
  </defs>
  <path d="M32 4C16.536 4 4 16.536 4 32C4 47.464 16.536 60 32 60C47.464 60 60 47.464 60 32C60 16.536 47.464 4 32 4Z" fill="url(#grad1)"/>
  <path d="M36.72 20.84C35.04 19.16 32.6 18.64 30.4 19.4L25.32 14.32C24.52 13.52 23.24 13.52 22.44 14.32L19.32 17.44C18.52 18.24 18.52 19.52 19.32 20.28L24.4 25.36C23.6 27.56 24.12 30 25.8 31.68C27.8 33.68 31.04 33.92 33.36 32.4L42.6 41.64C43.36 42.4 44.64 42.4 45.4 41.64L48.52 38.52C49.32 37.72 49.32 36.44 48.52 35.64L39.28 26.4C40.8 24.08 40.52 20.84 38.52 18.84L36.72 20.84ZM32.4 29.56C31.52 30.44 30.12 30.6 28.96 30.08L32.88 26.16C33.4 27.32 33.28 28.72 32.4 29.56Z" fill="white"/>
</svg>
